<?xml version="1.0" encoding="UTF-8" standalone="no"?>
<!-- Created with Inkscape (http://www.inkscape.org/) -->

<svg
   width="135.46666mm"
   height="135.46666mm"
   viewBox="0 0 135.46666 135.46666"
   version="1.1"
   id="svg1"
   inkscape:version="1.4.3 (0d15f75, 2025-12-25)"
   sodipodi:docname="Assets.svg"
   inkscape:export-filename="..\Icon\appiconfg.svg"
   inkscape:export-xdpi="96"
   inkscape:export-ydpi="96"
   xmlns:inkscape="http://www.inkscape.org/namespaces/inkscape"
   xmlns:sodipodi="http://sodipodi.sourceforge.net/DTD/sodipodi-0.dtd"
   xmlns="http://www.w3.org/2000/svg"
   xmlns:svg="http://www.w3.org/2000/svg">
  <sodipodi:namedview
     id="namedview1"
     pagecolor="#ffffff"
     bordercolor="#000000"
     borderopacity="0.25"
     inkscape:showpageshadow="2"
     inkscape:pageopacity="0.0"
     inkscape:pagecheckerboard="0"
     inkscape:deskcolor="#d1d1d1"
     inkscape:document-units="mm"
     inkscape:zoom="0.70710678"
     inkscape:cx="913.58196"
     inkscape:cy="1274.9135"
     inkscape:window-width="1920"
     inkscape:window-height="991"
     inkscape:window-x="-9"
     inkscape:window-y="-9"
     inkscape:window-maximized="1"
     inkscape:current-layer="g4385"
     inkscape:pageshadow="0"
     showgrid="false">
    <inkscape:page
       x="0"
       y="-6.2146325e-20"
       width="135.46666"
       height="135.46664"
       id="page2"
       margin="0"
       bleed="0" />
  </sodipodi:namedview>
  <defs
     id="defs1" />
  <g
     inkscape:label="Layer 1"
     inkscape:groupmode="layer"
     id="layer1"
     transform="translate(-247.80886,-255.84041)">
    <g
       id="g4385"
       transform="matrix(3.6973814,0,0,3.6973814,-292.78111,-298.79298)"
       style="stroke-width:0.270462"
       inkscape:export-filename="..\Icon\appiconfg.svg"
       inkscape:export-xdpi="96"
       inkscape:export-ydpi="96">
      <g
         id="g1">
        <rect
           style="fill:#ffffff;fill-opacity:0;stroke:#000000;stroke-width:0;stroke-linecap:round;stroke-linejoin:round;stroke-miterlimit:4;stroke-dasharray:none;stroke-opacity:0"
           id="rect3295"
           width="36.638542"
           height="36.638542"
           x="146.20888"
           y="150.00708" />
        <path
           id="path7785"
           style="font-size:36.8373px;font-family:'Averia Libre';-inkscape-font-specification:'Averia Libre';fill:#fe5f55;fill-opacity:1;stroke-width:0.049984"
           d="m 164.86821,159.32429 c -1.15588,0 -2.25297,0.2263 -3.29157,0.67859 -2.0856,0.91297 -3.49306,2.496 -4.22175,4.74912 -0.36855,1.12236 -0.55263,2.28224 -0.55263,3.47999 v 0.50245 c 0,1.26475 0.20927,2.44166 0.62806,3.53052 0.42718,1.08049 0.9383,1.96404 1.53299,2.65087 0.59469,0.67845 1.38602,1.25235 2.37437,1.7214 0.70212,0.32726 1.45947,0.53763 2.27151,0.6324 -0.41933,-0.7158 -0.65112,-1.42243 -0.69593,-2.12604 -0.002,-0.0267 -0.006,-0.31479 -0.01,-0.6739 -1.30843,-0.54691 -2.22024,-1.67934 -2.73425,-3.39841 -0.25965,-0.87946 -0.38947,-1.83433 -0.38947,-2.86456 0,-2.08559 0.47744,-3.70622 1.43228,-4.86209 0.72862,-0.87435 1.64197,-1.41753 2.73966,-1.63044 -0.002,0.0592 -0.002,0.0629 -0.004,0.13318 -0.006,0.22339 -0.0194,0.63634 -0.0282,0.9172 -0.0241,0.75671 -0.0253,0.81619 -0.0303,1.00165 l -0.004,0.15341 -3.6e-4,0.017 -0.008,0.22705 c -0.003,0.0707 -0.008,0.21072 -0.0123,0.34146 l -0.0318,0.8995 -0.005,0.0866 -0.11081,-0.001 c -0.061,-7e-4 -0.22159,0.008 -0.35699,0.0191 -0.13539,0.0112 -0.27966,0.0228 -0.32017,0.0249 -0.42722,0.0245 -0.63094,0.0291 -1.06446,0.027 -0.27798,-0.001 -0.51006,0.001 -0.51581,0.007 -0.0147,0.0148 -0.009,0.54096 0.006,0.57248 0.01,0.0196 0.0423,0.0256 0.12309,0.0213 0.18226,-0.009 0.45015,-0.0174 0.54576,-0.0166 0.56638,0.006 1.17089,0.0465 1.17059,0.0791 -7e-5,0.009 0.004,0.46165 0.009,1.0067 0.005,0.54506 0.0115,1.23109 0.0145,1.52468 0.003,0.29357 0.006,0.5873 0.007,0.65261 0.001,0.0653 0.006,0.55477 0.0112,1.08757 0.001,0.18416 0.001,0.15589 0.003,0.25917 h -0.002 c 7e-4,0.0567 0.002,0.0822 0.004,0.12994 0.001,0.147 0.003,0.36788 0.005,0.49379 -0.003,0.0543 -0.004,0.12958 -0.003,0.21369 7e-4,0.0384 0.003,0.29815 0.004,0.39669 v 0.58114 h 0.006 c 0.002,0.25665 0.004,0.35555 0.006,0.65008 0.005,0.7377 0.0106,1.37582 0.013,1.41784 0.0344,0.70251 0.23488,1.40816 0.60352,2.12604 0.0813,0.1584 0.30433,0.53132 0.33316,0.55696 l -0.001,7e-4 c 0.0229,0.0204 0.0384,10e-4 0.16568,-0.20683 0.37068,-0.60565 0.6333,-1.29062 0.74177,-1.93256 0.0504,-0.29781 0.0617,-0.53211 0.0664,-1.42542 0.007,-1.2867 0.0127,-1.97334 0.0191,-2.23649 l 0.002,-0.07 v -0.12525 h -3.6e-4 c 0.003,-0.32673 0.009,-0.96647 0.0152,-1.51927 0.006,-0.58628 0.013,-1.29678 0.0152,-1.57883 0.002,-0.28204 0.006,-0.58042 0.007,-0.66343 0.002,-0.083 0.005,-0.36701 0.007,-0.63096 0.002,-0.26395 0.006,-0.53492 0.007,-0.60208 l 0.003,-0.122 0.087,-0.009 c 0.45322,-0.0444 1.30581,-0.0652 1.58714,-0.0393 0.13319,0.0122 0.17314,0.0101 0.18444,-0.11082 h 0.001 l -3.6e-4,-0.009 c 0.003,-0.049 0.003,-0.11441 0.003,-0.20611 l -0.002,-0.27505 -0.5169,0.002 c -0.56059,0.003 -0.80592,-0.006 -1.31316,-0.0462 -0.18116,-0.0145 -0.37481,-0.0256 -0.43026,-0.0249 -0.0555,7e-4 -0.1047,-0.002 -0.10901,-0.006 -0.004,-0.004 -0.0116,-0.10238 -0.0152,-0.21802 -0.002,-0.0575 -7e-4,-0.0353 -0.003,-0.0884 l -0.013,3.6e-4 v -3.6e-4 h 0.013 c -0.0263,-0.8022 -0.0384,-1.19567 -0.0418,-1.33518 -0.002,-0.0947 -0.009,-0.32455 -0.0163,-0.51112 -0.007,-0.18659 -0.0145,-0.40713 -0.0166,-0.48982 -0.006,-0.24607 -0.0291,-0.97692 -0.0383,-1.22112 0.11289,-0.006 0.22736,-0.009 0.34363,-0.009 0.80408,0 1.60819,0.16743 2.41228,0.50246 l 1.82175,0.76631 c 0.54443,0 0.81648,-0.37669 0.81648,-1.13052 0,-0.7622 -0.40613,-1.35704 -1.21859,-1.78421 -0.81246,-0.42717 -1.99362,-0.6407 -3.54316,-0.6407 z m -0.49849,6.84483 h 7e-4 v 0.008 h -7e-4 z m -0.03,0.49523 0.0917,0.15954 v 8.37602 l -0.0917,0.15954 -0.0913,-0.15954 v -8.37602 z m 3.4558,2.29641 c -0.85434,0 -1.28139,0.15074 -1.28139,0.45228 0,0.0251 0.21778,0.3057 0.65333,0.84175 0.43554,0.53606 0.65333,1.18516 0.65333,1.94736 0,0.7622 -0.25964,1.39464 -0.77895,1.89719 -0.3383,0.33277 -0.75246,0.55463 -1.24133,0.66705 -0.0113,0.53223 -0.0351,0.75081 -0.0924,1.01104 -0.11188,0.50862 -0.33255,1.04051 -0.6389,1.55068 0.92134,0 2.01029,-0.20502 3.26667,-0.61543 0.7622,-0.25128 1.27722,-0.58222 1.54526,-0.99263 0.16752,-0.25129 0.33492,-0.8752 0.50244,-1.87193 0.16752,-1.0051 0.25123,-2.14015 0.25123,-3.40491 v -0.3014 c 0,-0.37691 -0.25964,-0.666 -0.77895,-0.86702 -0.51092,-0.2094 -1.19763,-0.31403 -2.06034,-0.31403 z" />
      </g>
    </g>
  </g>
</svg>
