<?xml version="1.0" encoding="utf-8"?>
<svg version="1.0" xmlns="http://www.w3.org/2000/svg" width="500pt" height="500pt" viewBox="161.393 88.02 300 300">
  <g transform="translate(0.000000,453.000000) scale(0.100000,-0.100000)" fill="#000000" stroke="none">
    <path d="M 3068 3337 C 3055 3324 3005 3280 2955 3240 C 2906 3200 2856 3159 2845 3148 C 2834 3138 2762 3078 2685 3014 C 2608 2950 2529 2884 2509 2866 C 2489 2849 2458 2824 2441 2810 C 2423 2796 2398 2775 2384 2763 C 2370 2752 2341 2727 2318 2708 C 2213 2624 1983 2427 1968 2408 C 1952 2390 1988 1953 1988 1953 C 2008 1932 2115 1839 2225 1745 C 2335 1652 2502 1510 2595 1431 C 2689 1351 2826 1234 2900 1171 C 2974 1108 3050 1043 3068 1028 C 3134 972 3138 974 3437 1228 C 4199 1875 4309 1970 4320 1990 C 4335 2018 4332 2370 4317 2397 C 4310 2408 4276 2442 4240 2472 C 4204 2501 4168 2531 4160 2537 C 4127 2565 3814 2825 3802 2835 C 3786 2848 3765 2866 3590 3011 C 3424 3149 3393 3175 3349 3210 C 3332 3224 3312 3240 3306 3245 C 3300 3251 3267 3279 3232 3308 C 3180 3351 3162 3360 3130 3360 C 3102 3360 3084 3353 3068 3337 Z M 3218 2870 C 3240 2818 3291 2703 3331 2615 C 3341 2593 3365 2537 3385 2490 C 3405 2443 3432 2383 3445 2355 C 3493 2248 3501 2227 3493 2220 C 3489 2215 3420 2178 3340 2137 C 3260 2096 3182 2055 3166 2047 C 3139 2032 3134 2034 2954 2123 C 2747 2227 2758 2213 2805 2315 C 2818 2342 2856 2428 2890 2505 C 2924 2582 2967 2679 2985 2720 C 3003 2761 3027 2815 3038 2840 C 3049 2865 3068 2908 3080 2935 C 3092 2963 3109 3001 3117 3020 L 3133 3055 L 3164 2990 C 3181 2954 3205 2900 3218 2870 Z M 3624 2753 C 3751 2644 3922 2501 4003 2435 L 4150 2315 L 4150 2228 L 4150 2141 L 4118 2146 C 4100 2149 4056 2160 4020 2170 C 3984 2181 3919 2198 3874 2209 C 3718 2247 3684 2260 3672 2283 C 3666 2295 3638 2357 3610 2420 C 3556 2541 3554 2545 3495 2680 C 3475 2727 3448 2788 3435 2815 C 3385 2921 3374 2950 3385 2950 C 3389 2950 3496 2861 3624 2753 Z M 2721 2046 C 2767 2022 2854 1977 2915 1946 C 2975 1914 3030 1884 3037 1878 C 3047 1870 3050 1802 3050 1578 C 3050 1415 3046 1290 3041 1292 C 3033 1295 2721 1559 2377 1854 C 2301 1919 2242 1976 2247 1980 C 2255 1988 2350 2016 2485 2049 C 2529 2061 2579 2074 2595 2079 C 2612 2084 2628 2089 2631 2089 C 2635 2090 2675 2070 2721 2046 Z M 3670 2080 C 3689 2074 3777 2051 3865 2029 C 3953 2006 4029 1985 4034 1982 C 4043 1977 4012 1947 3934 1885 C 3914 1869 3884 1844 3869 1830 C 3854 1816 3827 1794 3809 1780 C 3792 1766 3772 1750 3766 1745 C 3760 1739 3670 1662 3565 1574 C 3461 1485 3362 1400 3345 1386 C 3286 1333 3233 1290 3226 1290 C 3217 1290 3226 1866 3235 1880 C 3238 1885 3293 1915 3358 1948 C 3422 1980 3509 2025 3550 2048 C 3638 2096 3626 2093 3670 2080 Z"/>
  </g>
</svg>