<?xml version="1.0" encoding="utf-8"?>
<svg version="1.0" xmlns="http://www.w3.org/2000/svg" width="448.000000pt" height="420.000000pt" viewBox="0 0 448.000000 420.000000" preserveAspectRatio="xMidYMid meet">
  <g transform="translate(0.000000,420.000000) scale(0.100000,-0.100000)" fill="#000000" stroke="none">
    <path d="M 1745 3815 C 1486 3731 1263 3657 1248 3650 C 1232 3642 1171 3568 1094 3461 C 1024 3364 943 3254 915 3215 C 787 3040 631 2822 611 2790 C 590 2755 590 2748 590 2220 C 590 1692 590 1685 611 1650 C 647 1591 1181 857 1213 823 C 1248 785 1231 792 1550 689 C 1690 644 1900 576 2015 539 C 2131 501 2241 470 2260 470 C 2290 470 3227 767 3269 790 C 3298 806 3337 854 3525 1115 C 3629 1258 3761 1440 3819 1520 L 3925 1664 L 3925 2220 L 3925 2775 L 3617 3200 C 3448 3433 3297 3632 3282 3642 C 3234 3672 2301 3970 2256 3969 C 2232 3969 2018 3904 1745 3815 Z M 2783 3517 L 3120 3405 L 3341 3101 C 3463 2934 3563 2791 3564 2783 C 3565 2771 3494 2738 3219 2623 L 3132 2587 L 2924 2740 C 2809 2824 2693 2910 2665 2930 C 2638 2950 2567 3002 2508 3044 L 2400 3122 L 2400 3382 L 2400 3641 L 2423 3635 C 2435 3631 2597 3578 2783 3517 Z M 2434 2751 C 2522 2686 2665 2583 2750 2521 C 2835 2460 2916 2401 2929 2392 L 2952 2375 L 2837 2020 C 2773 1825 2715 1643 2707 1615 L 2693 1565 L 2262 1562 L 1831 1560 L 1790 1692 C 1767 1765 1708 1949 1658 2100 L 1567 2374 L 1591 2392 C 1604 2401 1741 2500 1895 2612 C 2049 2724 2191 2827 2210 2842 C 2229 2857 2251 2870 2259 2870 C 2266 2870 2345 2817 2434 2751 Z M 1306 2285 C 1359 2115 1481 1739 1521 1621 C 1548 1542 1570 1469 1570 1459 C 1570 1438 1332 1147 1319 1152 C 1315 1154 1245 1247 1164 1360 C 1083 1473 984 1610 943 1665 L 870 1764 L 869 2100 C 869 2284 867 2449 866 2465 C 864 2482 865 2498 867 2502 C 868 2505 965 2467 1082 2416 L 1294 2324 L 1306 2285 Z M 3551 1630 C 3496 1554 3397 1415 3329 1321 C 3262 1227 3204 1150 3200 1150 C 3188 1150 2950 1441 2950 1454 C 2950 1475 3229 2325 3237 2328 C 3241 2329 3335 2370 3445 2418 L 3645 2505 L 3648 2136 L 3650 1767 L 3551 1630 Z M 2839 1143 C 2901 1069 2953 1001 2954 993 C 2955 982 2861 948 2607 865 L 2260 753 L 1947 854 C 1776 910 1619 960 1600 966 C 1581 971 1565 981 1565 988 C 1565 994 1617 1063 1680 1140 L 1795 1280 L 2260 1280 L 2725 1280 L 2839 1143 Z"/>
  </g>
</svg>