<svg xmlns="http://www.w3.org/2000/svg" xml:space="preserve" viewBox="0 0 512 512" fill="#FFFFFF"><path d="m48.74 125.78 53.19 31.89c7.8 4.7 17.8 2 22.2-5.9L201.61 12.1c3-5.4-.9-12.1-7.1-12.1-1.6 0-3.2.5-4.6 1.4L47.94 98.78c-9.6 6.6-9.2 20.9.8 26.89zm-32.69 45.89v123.58c0 8 10.4 11 14.7 4.4l59.99-91.98c5-7.6 2.6-17.8-5.2-22.5l-45.29-27.19c-10.61-6.41-24.2 1.29-24.2 13.69M310.39 12.1l77.58 139.57c4.4 7.9 14.5 10.6 22.2 5.9l53.19-31.89c10-6 10.4-20.3.8-26.89L322.09 1.4c-1.4-.9-3-1.4-4.6-1.4-6.2 0-10.1 6.7-7.1 12.1m185.56 159.57c0-12.4-13.6-20.1-24.2-13.7l-45.29 27.19c-7.8 4.7-10.1 14.9-5.2 22.5l59.99 91.98c4.3 6.7 14.7 3.6 14.7-4.4zm-49.29 245.95-160.57 18.9c-8.1.9-14.1 7.8-14.1 15.9v52.79c0 3.7 3 6.8 6.8 6.8.8 0 1.6-.1 2.4-.4l172.67-63.99c6.1-2.2 10.1-8 10.1-14.5 0-9.3-8.1-16.5-17.3-15.4zM233.2 511.9c3.7 0 6.8-3 6.8-6.8v-52.59c0-8.1-6.1-14.9-14.1-15.9l-160.57-19c-9.2-1.1-17.3 6.1-17.3 15.4 0 6.5 4 12.3 10.1 14.5L230.8 511.5c.8.3 1.6.4 2.4.4M41.74 382.83l170.87 20.2c7.8.9 13.4-7.5 9.5-14.3l-85.68-149.97c-5.9-10.4-20.7-10.8-27.29-.8l-78.9 120.17c-6.49 9.9-.3 23.3 11.5 24.7m439.52-24.8-78.38-119.98c-6.5-10-21.4-9.6-27.29.8l-85.38 149.57c-3.9 6.8 1.6 15.2 9.5 14.3l170.07-20c11.8-1.4 18-14.7 11.5-24.6v-.09zm-216.86 11 78.38-137.17c6.1-10.7-1.6-23.9-13.9-23.9H183.11c-12.3 0-20 13.3-13.9 23.9l78.38 137.17c3.7 6.4 13 6.4 16.7 0zm-89.98-193.06h163.17c12.2 0 19.9-13.1 14-23.8L271.6 8.2c-2.8-5.1-8.2-8.2-14-8.2h-3.2c-5.8 0-11.2 3.2-14 8.2l-79.98 143.97c-5.9 10.7 1.8 23.8 14 23.8"/></svg>