<?xml version="1.0" encoding="utf-8"?>
<svg version="1.0" xmlns="http://www.w3.org/2000/svg" width="460.000000pt" height="456.000000pt" viewBox="0 0 460.000000 456.000000" preserveAspectRatio="xMidYMid meet">
  <g transform="translate(0.000000,456.000000) scale(0.100000,-0.100000)" fill="#000000" stroke="none">
    <path d="M 2300 4047 C 2275 4034 2057 3914 1815 3780 C 1320 3507 1222 3453 1065 3367 C 948 3304 904 3270 889 3232 C 879 3207 846 1740 852 1632 C 855 1578 860 1565 885 1541 C 902 1525 1023 1447 1155 1368 C 1287 1288 1575 1114 1795 980 C 2303 671 2269 690 2309 690 C 2335 690 2465 758 2864 979 C 3151 1137 3462 1309 3555 1360 C 3649 1411 3741 1467 3760 1486 L 3795 1520 L 3801 1712 C 3805 1818 3814 2187 3820 2531 C 3833 3205 3834 3187 3784 3231 C 3773 3240 3576 3361 3345 3500 C 3114 3639 2812 3822 2673 3906 C 2392 4078 2371 4086 2300 4047 Z M 2405 3543 C 2483 3402 2572 3244 2752 2925 C 2844 2763 3255 2043 3357 1866 C 3391 1806 3417 1754 3415 1750 C 3412 1745 3391 1744 3368 1746 C 3335 1749 1543 1770 1323 1770 C 1278 1770 1278 1770 1293 1793 C 1301 1806 1347 1884 1395 1966 C 1443 2048 1491 2131 1502 2150 C 1582 2286 2202 3373 2265 3488 C 2309 3566 2347 3630 2350 3630 C 2354 3630 2378 3591 2405 3543 Z M 2820 3496 C 2867 3466 3047 3356 3220 3250 C 3393 3145 3538 3055 3543 3051 C 3554 3040 3539 2129 3527 2133 C 3522 2134 3462 2237 3393 2360 C 3324 2484 3150 2792 3005 3045 C 2709 3565 2717 3550 2727 3550 C 2731 3550 2773 3526 2820 3496 Z M 2707 1480 C 2984 1480 3160 1476 3160 1471 C 3160 1460 3100 1426 2690 1202 C 2539 1120 2395 1040 2370 1026 C 2345 1012 2319 1000 2312 1000 C 2305 1000 2263 1023 2217 1052 C 2172 1080 1996 1186 1825 1288 C 1655 1390 1511 1477 1505 1483 C 1498 1489 1626 1490 1874 1486 C 2083 1483 2457 1480 2707 1480 Z"/>
  </g>
</svg>