<?xml version="1.0" encoding="UTF-8" standalone="no"?>
<!-- Created with Inkscape (http://www.inkscape.org/) -->

<svg
   width="157.85265mm"
   height="157.85239mm"
   viewBox="0 0 157.85265 157.85239"
   version="1.1"
   id="svg5"
   inkscape:version="1.4.3 (0d15f75, 2025-12-25)"
   sodipodi:docname="D&amp;D Assets.svg"
   xml:space="preserve"
   xmlns:inkscape="http://www.inkscape.org/namespaces/inkscape"
   xmlns:sodipodi="http://sodipodi.sourceforge.net/DTD/sodipodi-0.dtd"
   xmlns="http://www.w3.org/2000/svg"
   xmlns:svg="http://www.w3.org/2000/svg"><sodipodi:namedview
     id="namedview7"
     pagecolor="#878787"
     bordercolor="#eeeeee"
     borderopacity="1"
     inkscape:pageshadow="0"
     inkscape:pageopacity="0"
     inkscape:pagecheckerboard="0"
     inkscape:document-units="mm"
     showgrid="false"
     inkscape:zoom="0.45254834"
     inkscape:cx="-9480.7551"
     inkscape:cy="6546.262"
     inkscape:window-width="1920"
     inkscape:window-height="991"
     inkscape:window-x="-9"
     inkscape:window-y="-9"
     inkscape:window-maximized="1"
     inkscape:current-layer="layer1"
     inkscape:showpageshadow="2"
     inkscape:deskcolor="#d1d1d1"
     showguides="false"><inkscape:page
       x="-1.3969301e-19"
       y="3.3433164e-20"
       width="157.85265"
       height="157.85239"
       id="page2"
       margin="0"
       bleed="0" /></sodipodi:namedview><defs
     id="defs2" /><g
     inkscape:label="Layer 1"
     inkscape:groupmode="layer"
     id="layer1"
     transform="translate(2489.9403,-1715.5215)"><g
       id="g21"><g
         id="g22"><path
           style="fill:#4f6367;fill-opacity:1"
           d="m -2365.3306,1851.0208 -22.4242,-22.353 -6.08,3.7953 c -31.4055,19.6046 -73.5618,7.3805 -89.5513,-25.9673 -5.1726,-10.7881 -6.5543,-16.6873 -6.5543,-27.9845 0,-11.0561 1.3901,-17.1966 6.1203,-27.0359 6.7998,-14.1442 16.638,-23.8527 30.7823,-30.3763 9.1277,-4.2099 15.5247,-5.5776 26.0872,-5.5776 11.2972,0 17.1965,1.3816 27.9845,6.5543 33.3478,15.9895 45.5719,58.1457 25.9673,89.5513 l -3.7953,6.08 22.3531,22.4241 c 19.9799,20.0435 22.353,22.7513 22.353,25.505 0,2.0062 -0.8122,3.893 -2.3284,5.4093 -1.5162,1.5162 -3.4031,2.3284 -5.4093,2.3284 -2.7537,0 -5.4614,-2.3731 -25.5049,-22.3531 z m -44.3315,-27.8543 c 11.7281,-4.5037 22.886,-15.666 27.3559,-27.3667 2.921,-7.6462 3.5914,-21.6249 1.3987,-29.1674 -5.1773,-17.8093 -18.7717,-30.466 -36.7918,-34.2539 -15.1891,-3.1928 -30.9139,1.6625 -42.3177,13.0664 -25.0312,25.0312 -15.0742,66.5195 18.8151,78.3978 5.3202,1.8647 7.5849,2.1156 16.1486,1.789 7.2686,-0.2772 11.4283,-0.9434 15.3912,-2.4652 z"
           id="path19" /><g
           id="g20"
           transform="translate(0.63480731,0.62011719)"><path
             style="fill:#4f6367;fill-opacity:1;stroke:#4f6367;stroke-width:15;stroke-linecap:round;stroke-dasharray:none;stroke-opacity:1"
             d="m -2404.157,1800.7735 -44.3134,-44.3134"
             id="path20-8" /><path
             style="fill:#4f6367;fill-opacity:1;stroke:#4f6367;stroke-width:15;stroke-linecap:round;stroke-dasharray:none;stroke-opacity:1"
             d="m -2448.4704,1800.7735 44.3134,-44.3134"
             id="path20" /></g></g></g></g></svg>
