<?xml version="1.0" encoding="UTF-8" standalone="no"?>
<!-- Created with Inkscape (http://www.inkscape.org/) -->

<svg
   width="183.80885mm"
   height="183.57239mm"
   viewBox="0 0 183.80885 183.57239"
   version="1.1"
   id="svg1"
   xml:space="preserve"
   inkscape:version="1.4.3 (0d15f75, 2025-12-25)"
   sodipodi:docname="Page Assets.svg"
   xmlns:inkscape="http://www.inkscape.org/namespaces/inkscape"
   xmlns:sodipodi="http://sodipodi.sourceforge.net/DTD/sodipodi-0.dtd"
   xmlns="http://www.w3.org/2000/svg"
   xmlns:svg="http://www.w3.org/2000/svg"><sodipodi:namedview
     id="namedview1"
     pagecolor="#ffffff"
     bordercolor="#000000"
     borderopacity="0.25"
     inkscape:showpageshadow="2"
     inkscape:pageopacity="0.0"
     inkscape:pagecheckerboard="0"
     inkscape:deskcolor="#d1d1d1"
     inkscape:document-units="mm"
     inkscape:zoom="0.34431467"
     inkscape:cx="190.23296"
     inkscape:cy="-27.59104"
     inkscape:window-width="1920"
     inkscape:window-height="991"
     inkscape:window-x="-9"
     inkscape:window-y="-9"
     inkscape:window-maximized="1"
     inkscape:current-layer="layer1"><inkscape:page
       x="0"
       y="-4.9762597e-38"
       width="183.80885"
       height="183.57239"
       id="page2"
       margin="0"
       bleed="0" /></sodipodi:namedview><defs
     id="defs1" /><g
     inkscape:label="Layer 1"
     inkscape:groupmode="layer"
     id="layer1"
     transform="translate(-59.537431,150.85781)"><g
       id="g5"><rect
         style="fill:#fbf9f9;fill-opacity:1;stroke-width:0.264583"
         id="rect5"
         width="125.63907"
         height="49.948254"
         x="90.291069"
         y="-53.021992" /><path
         style="fill:#a4a39e;fill-opacity:1"
         d="m 147.15913,32.687518 c -6.54974,-0.34725 -10.18629,-0.78604 -15.113,-1.82358 -29.11812,-6.13211 -53.555981,-26.5373 -65.743492,-54.89466 -3.17571,-7.38908 -5.33037,-16.059861 -6.26453,-25.209679 -0.58341,-5.714266 -0.66184,-12.501259 -0.20963,-18.139653 0.70166,-8.748622 2.47614,-16.816063 5.33547,-24.256999 4.27276,-11.119167 10.37751,-20.954977 18.548341,-29.884567 1.57713,-1.72358 4.98697,-5.09394 6.63551,-6.55867 8.05315,-7.15525 16.886801,-12.66525 26.500671,-16.52982 9.21997,-3.70624 15.42723,-5.29853 23.02933,-5.9075 3.70007,-0.2964 5.24617,-0.34174 11.59933,-0.34016 8.65868,0.002 12.38958,0.22973 17.399,1.06129 5.15913,0.85641 11.3737,2.7672 18.07541,5.55762 7.97075,3.31883 15.67683,7.94418 22.38799,13.43775 4.20965,3.4459 8.9957,8.16277 12.50548,12.32473 7.62161,9.03782 13.50679,19.488495 17.14062,30.437661 5.53346,16.672929 5.81741,37.342832 0.75609,55.037836 -1.36289,4.764838 -2.96374,8.834671 -5.45996,13.880827 -2.99072,6.045794 -6.31194,11.348414 -10.4398,16.668044 -3.83939,4.94787 -8.83355,10.1091 -13.74696,14.20682 -9.54501,7.96043 -20.8158,13.95077 -32.71026,17.38525 -6.44705,1.86156 -12.22893,2.88271 -19.21894,3.39429 -1.6915,0.12379 -9.50885,0.23259 -11.00667,0.15317 z m 12.23433,-40.25629 c 14.20284,-0.0506 31.50024,-0.11769 38.43867,-0.149 12.61533,-0.057 12.61533,-0.057 12.76531,-2.30062 0.2477,-3.705452 0.0504,-5.350662 -1.00691,-8.395346 -2.22065,-6.394839 -7.11375,-13.001811 -13.74807,-18.563526 -14.67484,-12.302285 -35.65399,-17.629386 -56.17633,-14.264499 -11.60779,1.903239 -22.37645,6.577507 -30.861,13.395599 -2.5373,2.03895 -5.6038,4.983899 -7.24797,6.960685 -4.263231,5.125688 -7.378941,10.937463 -8.379661,15.630715 -0.45998,2.157262 -0.33475,6.619672 0.20394,7.266952 0.13422,0.16127 0.30189,0.17454 3.31636,0.26247 7.626411,0.22246 29.140301,0.27619 62.695661,0.15657 z m -6.223,-50.465775 c 3.85914,-0.344671 8.55334,-1.737977 11.52588,-3.421041 4.60002,-2.604557 8.52864,-6.50492 11.16797,-11.087645 1.47713,-2.564771 2.58308,-5.915171 3.14465,-9.526487 0.16944,-1.089616 0.19091,-1.541851 0.19091,-4.021666 0,-2.473399 -0.0216,-2.930012 -0.18788,-3.979333 -0.74279,-4.68616 -2.3395,-8.684077 -4.96764,-12.438141 -2.85014,-4.07119 -6.92253,-7.5497 -11.54925,-9.86501 -2.33999,-1.17098 -3.72742,-1.45671 -7.8853,-1.62394 -2.61611,-0.10522 -7.93776,-0.0525 -9.56733,0.0948 -2.54528,0.23005 -4.00699,0.68691 -7.00852,2.19054 -8.62363,4.32004 -13.74914,10.99236 -15.29259,19.90769 -0.34342,1.983687 -0.42756,3.143714 -0.42974,5.925069 -0.002,2.720735 0.0475,3.484795 0.34664,5.334 1.03337,6.388628 4.1596,11.634436 9.48924,15.922961 2.02118,1.626355 3.72854,2.724615 5.90997,3.801591 4.85103,2.394967 9.63067,3.276265 15.11299,2.786622 z"
         id="path3" /><ellipse
         style="fill:#fbf9f9;fill-opacity:1;stroke-width:0.287871"
         id="path4"
         cx="151.44186"
         cy="-85.172516"
         rx="29.34173"
         ry="29.749254" /></g></g></svg>
