<?xml version="1.0" encoding="UTF-8" standalone="no"?>
<!-- Created with Inkscape (http://www.inkscape.org/) -->

<svg
   width="100.00001mm"
   height="100.00004mm"
   viewBox="0 0 100.00001 100.00004"
   version="1.1"
   id="svg5"
   inkscape:version="1.4.3 (0d15f75, 2025-12-25)"
   sodipodi:docname="D&amp;D Assets.svg"
   xml:space="preserve"
   xmlns:inkscape="http://www.inkscape.org/namespaces/inkscape"
   xmlns:sodipodi="http://sodipodi.sourceforge.net/DTD/sodipodi-0.dtd"
   xmlns="http://www.w3.org/2000/svg"
   xmlns:svg="http://www.w3.org/2000/svg"><sodipodi:namedview
     id="namedview7"
     pagecolor="#878787"
     bordercolor="#eeeeee"
     borderopacity="1"
     inkscape:pageshadow="0"
     inkscape:pageopacity="0"
     inkscape:pagecheckerboard="0"
     inkscape:document-units="mm"
     showgrid="false"
     inkscape:zoom="0.31892537"
     inkscape:cx="-2201.1419"
     inkscape:cy="2974.05"
     inkscape:window-width="1920"
     inkscape:window-height="991"
     inkscape:window-x="-9"
     inkscape:window-y="-9"
     inkscape:window-maximized="1"
     inkscape:current-layer="layer1"
     inkscape:showpageshadow="2"
     inkscape:deskcolor="#d1d1d1"><inkscape:page
       x="0"
       y="0"
       width="100.00001"
       height="100.00004"
       id="page2"
       margin="0"
       bleed="0" /></sodipodi:namedview><defs
     id="defs2" /><g
     inkscape:label="Layer 1"
     inkscape:groupmode="layer"
     id="layer1"
     transform="translate(314.70578,-866.53797)"><g
       id="g27"><path
         style="fill:#ffffff;fill-opacity:1;stroke-width:0.998492"
         d="m -313.57939,965.54312 c -1.098,-1.21328 -1.17902,-4.08008 -0.1397,-4.94264 0.41829,-0.34715 3.9063,-1.49513 7.75114,-2.55109 19.43572,-5.33784 35.65398,-8.16697 56.76107,-9.90147 l 4.62349,-0.37995 -1.5469,-1.35787 c -4.24531,-3.72652 -9.16792,-12.02393 -11.1321,-18.76393 -1.82701,-6.26931 -2.27933,-11.00939 -2.27933,-23.88585 V 891.5056 l -4.88558,-2.59942 c -5.38598,-2.86564 -6.24921,-4.26927 -3.4095,-5.54396 0.8227,-0.36931 3.05419,-1.53801 4.95886,-2.59712 l 3.46304,-1.92567 -5.01258,-5.03352 c -3.45576,-3.47019 -4.95141,-5.35146 -4.81558,-6.05723 0.18775,-0.97562 1.08557,-1.03044 19.10494,-1.16677 16.11521,-0.12192 19.14599,-0.02 20.51963,0.69039 2.23015,1.15325 14.67979,21.97828 14.67979,24.55549 0,2.91755 -2.65267,9.28423 -4.52451,10.85928 -1.51434,1.27421 -2.02625,1.38844 -5.37467,1.19923 -3.67778,-0.2078 -3.72057,-0.22855 -6.84354,-3.31894 l -3.14261,-3.10982 h -5.01566 -5.01568 v 4.99569 c 0,8.03806 0.87633,9.20084 11.96668,15.87848 10.7255,6.45797 12.17603,7.67381 14.60144,12.23893 2.51689,4.73732 3.51334,9.33653 3.19646,14.75356 -0.45375,7.75683 -3.75792,14.08439 -9.29961,17.80895 -5.18376,3.484 -4.0605,3.40469 -48.22029,3.40469 -38.1269,0 -40.11211,-0.0482 -40.9687,-0.99472 z m 81.35179,-81.71754 c 0.94998,-0.94998 1.4577,-1.86335 1.18202,-2.12637 -0.46425,-0.44294 -5.91973,-2.19167 -6.8373,-2.19167 -0.24486,0 -0.44521,0.83893 -0.44521,1.8643 0,1.36618 0.38294,2.16554 1.43321,2.99167 1.92596,1.51497 2.70406,1.42528 4.66728,-0.53793 z m -66.18692,44.4456 c -1.05834,-0.77387 -1.34056,-4.04239 -0.40164,-4.65142 1.0964,-0.71118 13.70928,-12.77747 13.70928,-13.11518 0,-0.19875 -1.89699,0.062 -4.21553,0.57952 -8.40982,1.87707 -21.64259,4.92275 -22.51617,5.18237 -0.49202,0.14623 -1.28752,-0.12707 -1.7678,-0.60735 -1.47507,-1.47508 -1.05809,-3.6914 1.18423,-6.29432 1.1316,-1.31358 5.44957,-6.62523 9.59549,-11.80368 4.14592,-5.17846 8.4171,-10.01272 9.49153,-10.7428 2.351,-1.59755 5.58634,-1.74851 8.04845,-0.37556 0.93887,0.52354 5.87908,4.74587 10.97827,9.38296 l 9.27124,8.43106 0.0287,6.52728 c 0.0254,5.74409 0.75456,12.02139 1.9431,16.72613 l 0.37788,1.49583 h -17.36107 c -13.72226,0 -17.5717,-0.15402 -18.36602,-0.73484 z"
         id="path12" /><rect
         style="fill:#0eff00;fill-opacity:0;stroke:#000000;stroke-width:0;stroke-linecap:round;stroke-linejoin:round;stroke-opacity:0"
         id="rect12"
         width="100"
         height="100"
         x="-314.70578"
         y="866.53796"
         ry="0" /></g></g></svg>
