<?xml version="1.0" encoding="UTF-8" standalone="no"?>
<!-- Created with Inkscape (http://www.inkscape.org/) -->

<svg
   width="100mm"
   height="100.00004mm"
   viewBox="0 0 100 100.00004"
   version="1.1"
   id="svg5"
   inkscape:version="1.4.3 (0d15f75, 2025-12-25)"
   sodipodi:docname="D&amp;D Assets.svg"
   xml:space="preserve"
   xmlns:inkscape="http://www.inkscape.org/namespaces/inkscape"
   xmlns:sodipodi="http://sodipodi.sourceforge.net/DTD/sodipodi-0.dtd"
   xmlns="http://www.w3.org/2000/svg"
   xmlns:svg="http://www.w3.org/2000/svg"><sodipodi:namedview
     id="namedview7"
     pagecolor="#878787"
     bordercolor="#eeeeee"
     borderopacity="1"
     inkscape:pageshadow="0"
     inkscape:pageopacity="0"
     inkscape:pagecheckerboard="0"
     inkscape:document-units="mm"
     showgrid="false"
     inkscape:zoom="0.31892537"
     inkscape:cx="-2201.1419"
     inkscape:cy="2974.05"
     inkscape:window-width="1920"
     inkscape:window-height="991"
     inkscape:window-x="-9"
     inkscape:window-y="-9"
     inkscape:window-maximized="1"
     inkscape:current-layer="layer1"
     inkscape:showpageshadow="2"
     inkscape:deskcolor="#d1d1d1"><inkscape:page
       x="0"
       y="0"
       width="100"
       height="100.00004"
       id="page2"
       margin="0"
       bleed="0" /></sodipodi:namedview><defs
     id="defs2" /><g
     inkscape:label="Layer 1"
     inkscape:groupmode="layer"
     id="layer1"
     transform="translate(434.66257,-866.53797)"><g
       id="g26"><path
         style="fill:#ffffff;fill-opacity:1;stroke-width:1.10257"
         d="m -412.4045,964.88974 c -1.67709,-1.67709 -1.98131,-2.48892 -1.98131,-5.28726 0,-3.39956 4.21502,-20.99515 5.29045,-22.08494 0.36821,-0.37312 1.05453,-0.22711 1.76892,0.37635 1.23132,1.04011 7.26639,3.75461 11.69741,5.26135 1.71159,0.58201 5.6256,0.88431 11.18825,0.86414 7.54943,-0.0274 9.15731,-0.24026 13.67061,-1.81004 2.81321,-0.97846 6.2991,-2.56267 7.74645,-3.52047 1.44734,-0.95782 2.72271,-1.62409 2.83417,-1.48064 0.86348,1.11152 5.68222,20.51142 5.68919,22.9043 0.007,2.22918 -2.91631,5.79952 -5.14916,6.28993 -2.37727,0.52215 -7.3101,-1.29321 -16.23641,-5.9752 -4.03535,-2.11662 -7.59408,-3.54327 -8.83853,-3.54327 -1.26193,0 -5.75763,1.83151 -11.40316,4.64555 -11.39799,5.68139 -13.51803,6.11905 -16.27688,3.3602 z m 19.50338,-29.41925 c -16.25575,-4.06623 -27.67074,-19.49169 -26.52493,-35.84403 0.63569,-9.07199 3.24729,-15.55915 8.70966,-21.63462 6.61159,-7.35369 15.39546,-11.33089 25.28841,-11.45022 10.79134,-0.13016 18.85159,3.23148 26.0537,10.86609 6.67515,7.07602 9.57551,14.46637 9.55414,24.34478 -0.013,6.01214 -0.76864,9.22375 -3.50937,14.91554 -2.05448,4.26663 -9.77342,13.23253 -11.39217,13.23253 -0.46895,0 -0.95136,0.26015 -1.07201,0.57812 -0.2769,0.72971 -8.29047,4.48189 -10.82424,5.06822 -3.95886,0.91611 -12.47511,0.87615 -16.28319,-0.0764 z m 5.22482,-20.44819 c 2.43563,-1.15578 3.56724,-1.05018 8.28492,0.77317 2.66114,1.0285 3.22527,1.06376 4.19136,0.26197 0.91598,-0.76019 1.05855,-1.73441 0.79431,-5.42759 -0.3121,-4.36187 -0.25256,-4.5843 1.92465,-7.19025 4.45081,-5.32727 4.35109,-6.60651 -0.63029,-8.08582 -1.83792,-0.5458 -3.73116,-0.99238 -4.20719,-0.99238 -0.47604,0 -1.97332,-1.77222 -3.3273,-3.93828 -3.67857,-5.88484 -4.56538,-5.89133 -8.21048,-0.06 -1.94685,3.1145 -2.85242,3.96413 -4.59849,4.31439 -5.07048,1.01715 -6.45208,1.71708 -6.45208,3.26873 0,0.82958 1.19269,3.00629 2.65045,4.83714 2.62911,3.30204 2.64753,3.36426 2.28803,7.73301 -0.53731,6.52971 1.01107,7.48649 7.29211,4.50595 z"
         id="path15"
         inkscape:export-filename="Gish UI\Assets\Icon\Tags\feat_tag_icon.svg"
         inkscape:export-xdpi="96"
         inkscape:export-ydpi="96" /><rect
         style="fill:#0eff00;fill-opacity:0;stroke:#000000;stroke-width:0;stroke-linecap:round;stroke-linejoin:round;stroke-opacity:0"
         id="rect15"
         width="100"
         height="100"
         x="-434.6626"
         y="866.53796"
         ry="0" /></g></g></svg>
