<?xml version="1.0" encoding="UTF-8" standalone="no"?>
<!-- Created with Inkscape (http://www.inkscape.org/) -->

<svg
   width="100mm"
   height="99.999969mm"
   viewBox="0 0 100 99.999969"
   version="1.1"
   id="svg5"
   inkscape:version="1.4.3 (0d15f75, 2025-12-25)"
   sodipodi:docname="D&amp;D Assets.svg"
   xml:space="preserve"
   xmlns:inkscape="http://www.inkscape.org/namespaces/inkscape"
   xmlns:sodipodi="http://sodipodi.sourceforge.net/DTD/sodipodi-0.dtd"
   xmlns="http://www.w3.org/2000/svg"
   xmlns:svg="http://www.w3.org/2000/svg"><sodipodi:namedview
     id="namedview7"
     pagecolor="#878787"
     bordercolor="#eeeeee"
     borderopacity="1"
     inkscape:pageshadow="0"
     inkscape:pageopacity="0"
     inkscape:pagecheckerboard="0"
     inkscape:document-units="mm"
     showgrid="false"
     inkscape:zoom="0.31892537"
     inkscape:cx="-2201.1419"
     inkscape:cy="2974.05"
     inkscape:window-width="1920"
     inkscape:window-height="991"
     inkscape:window-x="-9"
     inkscape:window-y="-9"
     inkscape:window-maximized="1"
     inkscape:current-layer="layer1"
     inkscape:showpageshadow="2"
     inkscape:deskcolor="#d1d1d1"><inkscape:page
       x="0"
       y="0"
       width="100"
       height="99.999969"
       id="page2"
       margin="0"
       bleed="0" /></sodipodi:namedview><defs
     id="defs2" /><g
     inkscape:label="Layer 1"
     inkscape:groupmode="layer"
     id="layer1"
     transform="translate(554.61945,-679.87604)"><g
       id="g20"><path
         style="fill:#424c44;fill-opacity:1;stroke-width:0.863014"
         d="m -513.84958,779.56167 c -0.93933,-0.40929 -2.08926,-1.76973 -2.37959,-2.81521 -0.13173,-0.47438 -0.24009,-2.68967 -0.24079,-4.92286 -0.002,-4.42355 -0.12908,-5.04115 -1.27751,-6.17903 -1.40674,-1.39381 -1.41882,-1.39584 -9.01747,-1.52008 l -6.98277,-0.11418 -0.86269,-0.65851 c -1.58102,-1.20683 -1.71563,-1.82105 -1.72132,-7.85445 -0.006,-5.98043 -0.0679,-6.28739 -1.54608,-7.62119 -0.6934,-0.62568 -1.2611,-0.90081 -2.2612,-1.09586 -0.73445,-0.14324 -1.62557,-0.3166 -1.98026,-0.38522 -0.94378,-0.18261 -2.12359,-1.32544 -2.56703,-2.48656 -0.73635,-1.92812 -0.55672,-2.38322 4.02867,-10.20639 l 4.18461,-7.13942 0.0129,-7.76354 c 0.0142,-8.59379 0.10131,-9.34631 1.6165,-13.97179 1.94374,-5.93375 4.91822,-10.63868 9.50029,-15.02727 4.82183,-4.61823 10.28738,-7.55144 17.09231,-9.17299 3.54895,-0.84568 9.95117,-1.00312 13.83349,-0.34019 7.66654,1.30911 14.12538,4.6587 19.62819,10.1793 6.71803,6.73974 10.19511,14.69892 10.53223,24.10867 0.15064,4.20454 -0.21369,7.28405 -1.43818,12.15622 -1.3782,5.48383 -4.27702,13.24981 -6.65673,17.83355 l -0.84895,1.63519 -0.11417,15.56312 -0.11417,15.56312 -0.69074,0.85326 c -1.47437,1.82128 -0.0132,1.70162 -20.6554,1.69158 -14.67749,-0.007 -18.52385,-0.0695 -19.07412,-0.30927 z"
         id="path1532" /><rect
         style="fill:#0eff00;fill-opacity:0;stroke:#000000;stroke-width:0;stroke-linecap:round;stroke-linejoin:round;stroke-opacity:0"
         id="rect8"
         width="100"
         height="100"
         x="-554.61945"
         y="679.87598"
         ry="0" /></g></g></svg>
