<?xml version="1.0" encoding="UTF-8" standalone="no"?>
<!-- Created with Inkscape (http://www.inkscape.org/) -->

<svg
   width="99.999969mm"
   height="99.999969mm"
   viewBox="0 0 99.999969 99.999969"
   version="1.1"
   id="svg5"
   inkscape:version="1.1 (c68e22c387, 2021-05-23)"
   sodipodi:docname="D&amp;D Assets.svg"
   xml:space="preserve"
   xmlns:inkscape="http://www.inkscape.org/namespaces/inkscape"
   xmlns:sodipodi="http://sodipodi.sourceforge.net/DTD/sodipodi-0.dtd"
   xmlns="http://www.w3.org/2000/svg"
   xmlns:svg="http://www.w3.org/2000/svg"><sodipodi:namedview
     id="namedview7"
     pagecolor="#878787"
     bordercolor="#eeeeee"
     borderopacity="1"
     inkscape:pageshadow="0"
     inkscape:pageopacity="0"
     inkscape:pagecheckerboard="0"
     inkscape:document-units="mm"
     showgrid="false"
     inkscape:zoom="0.32"
     inkscape:cx="-2871.875"
     inkscape:cy="2379.6875"
     inkscape:window-width="1920"
     inkscape:window-height="991"
     inkscape:window-x="-9"
     inkscape:window-y="-9"
     inkscape:window-maximized="1"
     inkscape:current-layer="layer1"
     inkscape:showpageshadow="2"
     inkscape:deskcolor="#d1d1d1"
     showguides="false"><inkscape:page
       x="0"
       y="0"
       width="99.999969"
       height="99.999969"
       id="page2"
       margin="0"
       bleed="0" /></sodipodi:namedview><defs
     id="defs2" /><g
     inkscape:label="Layer 1"
     inkscape:groupmode="layer"
     id="layer1"
     transform="translate(674.57617,-679.87604)"><g
       id="g6041"><path
         style="fill:#4f6367;fill-opacity:1;stroke-width:1.26576"
         d="m -637.17216,778.25752 c -1.19078,-1.0867 -2.44184,-3.39478 -3.66071,-6.75366 -1.01843,-2.80652 -2.80026,-7.66917 -3.95962,-10.80587 -1.15936,-3.13669 -2.23978,-6.13951 -2.40092,-6.67291 -0.19041,-0.63026 -4.42714,-2.48324 -12.10053,-5.29229 -13.66052,-5.00082 -15.10931,-6.01968 -15.10931,-10.62561 0,-3.3004 1.69749,-5.18162 6.08041,-6.73858 19.75503,-7.01761 20.76043,-7.47024 21.51041,-9.68385 0.39301,-1.15998 1.61606,-4.54038 2.71789,-7.51199 1.10183,-2.97162 2.76066,-7.48882 3.6863,-10.03823 2.15264,-5.92883 3.88113,-7.35823 8.63424,-7.14019 2.94855,0.13526 4.39435,2.43824 8.37677,13.34315 5.1245,14.03218 4.68401,13.3138 9.14436,14.91332 2.08136,0.74641 5.54024,2.02441 7.68641,2.84 2.14616,0.81559 5.38793,2.02869 7.20391,2.69575 6.48601,2.38252 7.80424,3.70717 7.80424,7.84234 0,3.29905 -2.46052,5.46614 -8.70474,7.6667 -5.97255,2.10481 -17.91525,6.6037 -18.14801,6.83646 -0.23676,0.23676 -7.40345,19.67497 -8.03195,21.78508 -1.41432,4.74834 -7.20934,6.55254 -10.72915,3.34038 z m 49.96053,-55.37189 c -0.4096,-0.65588 -0.74474,-2.14169 -0.74474,-3.3018 0,-2.0178 -0.0929,-2.10929 -2.1406,-2.10929 -3.24661,0 -4.46298,-0.89989 -4.46298,-3.30178 0,-2.4019 1.21637,-3.30179 4.46298,-3.30179 2.06997,0 2.14124,-0.0743 2.15969,-2.25123 0.0251,-2.9596 1.14954,-4.35235 3.51383,-4.35235 2.09639,0 3.07067,1.53619 3.07067,4.84168 0,1.64998 0.14979,1.7619 2.35841,1.7619 2.81003,0 4.24517,1.22505 4.24517,3.62371 0,2.05707 -1.38208,2.97986 -4.46298,2.97986 -1.96768,0 -2.1406,0.14234 -2.1406,1.7619 0,3.34906 -0.9688,4.84169 -3.14253,4.84169 -1.31695,0 -2.21888,-0.39596 -2.71632,-1.1925 z m -19.47071,-16.02385 c -1.2255,-0.3231 -2.41803,-3.65539 -2.27071,-6.34508 0.2302,-4.20284 0.39578,-4.05354 -4.49604,-4.05354 -3.81614,0 -4.57356,-0.17236 -5.10276,-1.1612 -1.75849,-3.28577 -0.0149,-4.84206 5.42468,-4.84206 4.39705,0 4.65556,-0.22036 4.17891,-3.56212 -0.0676,-0.47335 0.0542,-2.04047 0.2704,-3.48246 0.4799,-3.20023 2.52879,-4.41259 4.86752,-2.88018 1.21241,0.79439 1.41634,1.47882 1.56987,5.26879 l 0.17645,4.3558 4.48781,0.30017 c 4.03866,0.27011 4.56212,0.4498 5.23016,1.79535 0.59748,1.20346 0.58677,1.73057 -0.0549,2.70147 -0.6422,0.97166 -1.6594,1.26465 -5.23016,1.50644 l -4.43291,0.30016 -0.16358,4.20227 c -0.13244,3.40186 -0.40239,4.40239 -1.41725,5.25285 -0.6895,0.57781 -1.42632,1.01923 -1.63739,0.98093 -0.21105,-0.0383 -0.84109,-0.19022 -1.40009,-0.33759 z"
         id="path3" /><rect
         style="fill:#0eff00;fill-opacity:0;stroke:#000000;stroke-width:0;stroke-linecap:round;stroke-linejoin:round;stroke-opacity:0"
         id="rect7"
         width="100"
         height="100"
         x="-674.57623"
         y="679.87598"
         ry="0" /></g></g></svg>
