<?xml version="1.0" encoding="UTF-8" standalone="no"?>
<!-- Created with Inkscape (http://www.inkscape.org/) -->

<svg
   width="100.00003mm"
   height="99.999969mm"
   viewBox="0 0 100.00003 99.999969"
   version="1.1"
   id="svg5"
   inkscape:version="1.1 (c68e22c387, 2021-05-23)"
   sodipodi:docname="D&amp;D Assets.svg"
   xml:space="preserve"
   xmlns:inkscape="http://www.inkscape.org/namespaces/inkscape"
   xmlns:sodipodi="http://sodipodi.sourceforge.net/DTD/sodipodi-0.dtd"
   xmlns="http://www.w3.org/2000/svg"
   xmlns:svg="http://www.w3.org/2000/svg"><sodipodi:namedview
     id="namedview7"
     pagecolor="#878787"
     bordercolor="#eeeeee"
     borderopacity="1"
     inkscape:pageshadow="0"
     inkscape:pageopacity="0"
     inkscape:pagecheckerboard="0"
     inkscape:document-units="mm"
     showgrid="false"
     inkscape:zoom="0.32"
     inkscape:cx="-2871.875"
     inkscape:cy="2379.6875"
     inkscape:window-width="1920"
     inkscape:window-height="991"
     inkscape:window-x="-9"
     inkscape:window-y="-9"
     inkscape:window-maximized="1"
     inkscape:current-layer="layer1"
     inkscape:showpageshadow="2"
     inkscape:deskcolor="#d1d1d1"
     showguides="false"><inkscape:page
       x="0"
       y="0"
       width="100.00003"
       height="99.999969"
       id="page2"
       margin="0"
       bleed="0" /></sodipodi:namedview><defs
     id="defs2" /><g
     inkscape:label="Layer 1"
     inkscape:groupmode="layer"
     id="layer1"
     transform="translate(794.53311,-679.87604)"><g
       id="g2844"><path
         style="fill:#4f6367;fill-opacity:1;stroke-width:1.01783"
         d="m -790.39127,775.39126 c -3.1395,-3.23778 -3.90279,-4.35572 -3.90279,-5.71618 0,-3.04109 3.18477,-4.82486 5.9613,-3.33891 0.82915,0.44375 1.96887,-0.44729 7.00998,-5.48041 l 6.01986,-6.01033 -1.83574,-2.40493 c -4.67369,-6.12286 -6.52874,-12.74601 -4.21735,-15.05739 2.37213,-2.37213 6.66029,-0.68235 6.66029,2.62455 0,0.71537 0.20256,1.30068 0.45013,1.30068 0.24757,0 3.08436,-2.61199 6.30398,-5.80441 l 5.85384,-5.80442 -12.15626,-12.27763 c -6.68594,-6.7527 -12.4453,-12.47256 -12.79856,-12.71081 -0.35327,-0.23825 -2.18315,-5.07726 -4.06639,-10.75338 l -3.42408,-10.3202 1.12603,-1.51478 c 0.63952,-0.8603 1.7623,-1.59044 2.59864,-1.68988 0.80992,-0.0963 5.68529,1.22589 10.83413,2.93821 l 9.36153,3.1133 12.80802,12.71325 c 7.04441,6.99228 12.96093,12.71324 13.14781,12.71324 0.38291,0 3.13328,-2.62004 16.77944,-15.98434 l 9.52698,-9.33019 9.54353,-3.13028 c 5.24895,-1.72167 10.06015,-3.13029 10.69156,-3.13029 1.70373,0 3.58233,1.76561 3.58233,3.36687 0,0.76763 -1.3923,5.573 -3.094,10.67863 l -3.09401,9.28294 -13.1699,13.08704 -13.16989,13.08705 5.70888,5.73747 c 3.13989,3.15562 5.9459,5.65847 6.23557,5.56191 0.28968,-0.0966 0.7207,-0.92427 0.95783,-1.83935 0.23712,-0.9151 0.81263,-1.98043 1.27891,-2.36741 1.24126,-1.03014 3.8709,-0.85854 5.19412,0.33898 2.35447,2.13076 0.19608,9.64788 -4.46202,15.54002 l -1.56101,1.97457 6.03985,6.04303 c 5.07133,5.07402 6.19927,5.95771 7.03412,5.51092 2.73414,-1.46327 5.96546,0.39972 5.96546,3.43933 0,1.23313 -0.87323,2.48912 -3.9028,5.61353 -3.4577,3.56594 -4.13102,4.02496 -5.904,4.02496 -1.30884,0 -2.34162,-0.37613 -2.98508,-1.08716 -1.06948,-1.18175 -1.24356,-4.14911 -0.29883,-5.09384 0.42085,-0.42085 -1.07456,-2.25541 -5.2643,-6.45819 -3.21869,-3.22869 -6.03951,-5.87035 -6.26848,-5.87035 -0.22898,0 -1.60739,0.8557 -3.06314,1.90155 -3.72923,2.67918 -8.64882,4.76346 -11.42179,4.83905 -1.87132,0.051 -2.57761,-0.2024 -3.40249,-1.22082 -0.57253,-0.70687 -1.04097,-1.88166 -1.04097,-2.61065 0,-1.73217 2.29994,-3.99792 4.05824,-3.99792 0.76216,0 1.38574,-0.18791 1.38574,-0.41759 0,-0.22967 -2.63761,-3.04701 -5.86136,-6.26077 l -5.86137,-5.8432 -5.90185,5.9202 c -3.24602,3.25612 -5.69171,6.03959 -5.4349,6.18551 0.25683,0.14592 1.13755,0.42556 1.95716,0.62142 3.59962,0.86018 4.07063,5.76528 0.68928,7.17809 -1.4958,0.62499 -2.24888,0.63216 -4.52015,0.043 -2.29732,-0.59593 -7.40962,-3.32143 -11.1292,-5.93329 -0.82827,-0.5816 -1.70539,0.0882 -6.90931,5.27595 -4.89659,4.8814 -5.8691,6.11311 -5.44798,6.89999 0.82991,1.55072 0.58911,4.05786 -0.48293,5.02805 -0.54756,0.49553 -1.85355,0.90097 -2.90219,0.90097 -1.6554,0 -2.42088,-0.53035 -5.80942,-4.02496 z m 33.51228,-27.12923 6.67229,-6.65627 -2.83504,-2.8707 c -1.55928,-1.57888 -3.09222,-2.8707 -3.40654,-2.8707 -0.31434,0 -3.48126,2.91734 -7.03761,6.48298 l -6.46608,6.48298 2.87887,3.04399 c 1.5834,1.67419 3.02355,3.04399 3.20036,3.04399 0.17681,0 3.324,-2.99532 6.99375,-6.65627 z m 36.82022,-36.66417 12.32407,-12.01754 1.36099,-4.00147 c 0.74854,-2.2008 1.36099,-4.28822 1.36099,-4.6387 0,-0.40998 -1.60172,-0.0714 -4.49129,0.94959 l -4.49129,1.58682 -12.52116,12.17163 -12.52116,12.17164 2.9802,3.03854 c 1.63911,1.6712 3.13643,2.97521 3.3274,2.89778 0.19095,-0.0775 5.89302,-5.54865 12.67125,-12.15829 z"
         id="path4" /><rect
         style="fill:#0eff00;fill-opacity:0;stroke:#000000;stroke-width:0;stroke-linecap:round;stroke-linejoin:round;stroke-opacity:0"
         id="rect4"
         width="100"
         height="100"
         x="-794.53308"
         y="679.87598"
         ry="0" /></g><rect
       style="fill:#0eff00;fill-opacity:0.371882;stroke:#000000;stroke-width:0;stroke-linecap:round;stroke-linejoin:round;stroke-opacity:0"
       id="rect5"
       width="100"
       height="100"
       x="-894.50092"
       y="700.99438"
       ry="0" /></g></svg>
