<?xml version="1.0" encoding="UTF-8" standalone="no"?>
<!-- Created with Inkscape (http://www.inkscape.org/) -->

<svg
   width="24.000004mm"
   height="24.000006mm"
   viewBox="0 0 24.000004 24.000006"
   version="1.1"
   id="svg1"
   xml:space="preserve"
   inkscape:version="1.4.3 (0d15f75, 2025-12-25)"
   sodipodi:docname="Page Assets.svg"
   xmlns:inkscape="http://www.inkscape.org/namespaces/inkscape"
   xmlns:sodipodi="http://sodipodi.sourceforge.net/DTD/sodipodi-0.dtd"
   xmlns="http://www.w3.org/2000/svg"
   xmlns:svg="http://www.w3.org/2000/svg"><sodipodi:namedview
     id="namedview1"
     pagecolor="#ffffff"
     bordercolor="#000000"
     borderopacity="0.25"
     inkscape:showpageshadow="2"
     inkscape:pageopacity="0.0"
     inkscape:pagecheckerboard="0"
     inkscape:deskcolor="#d1d1d1"
     inkscape:document-units="mm"
     inkscape:zoom="0.97386896"
     inkscape:cx="492.36603"
     inkscape:cy="699.78614"
     inkscape:window-width="1920"
     inkscape:window-height="991"
     inkscape:window-x="-9"
     inkscape:window-y="-9"
     inkscape:window-maximized="1"
     inkscape:current-layer="layer1"><inkscape:page
       x="0"
       y="0"
       width="24.000004"
       height="24.000006"
       id="page2"
       margin="0"
       bleed="0" /></sodipodi:namedview><defs
     id="defs1" /><g
     inkscape:label="Layer 1"
     inkscape:groupmode="layer"
     id="layer1"
     transform="translate(-170.7585,-137.73788)"><g
       id="g13"
       transform="translate(-30.700143,32.873605)"><rect
         style="fill:#ee0000;fill-opacity:0;stroke-width:0.0897508"
         id="rect12"
         width="24"
         height="24"
         x="201.45865"
         y="104.86426" /><path
         style="fill:#000000;stroke-width:0.177272"
         d="m 223.85566,125.93902 c 0.15817,-0.0344 0.35868,-0.0986 0.44558,-0.14275 0.0869,-0.0441 0.25821,-0.15579 0.38071,-0.24818 0.12249,-0.0924 0.30549,-0.28598 0.40667,-0.43022 0.10118,-0.14424 0.22807,-0.39317 0.28197,-0.55318 0.0973,-0.28874 0.0978,-0.32418 0.0772,-4.71162 -0.0114,-2.43138 -0.039,-5.42325 -0.0613,-6.64859 -0.0383,-2.10321 -0.0461,-2.24167 -0.13923,-2.4739 -0.0543,-0.1353 -0.15319,-0.339 -0.2198,-0.45267 -0.0666,-0.11366 -0.2217,-0.29612 -0.34464,-0.40546 -0.12295,-0.10934 -0.36073,-0.26445 -0.52841,-0.34469 -0.30487,-0.14588 -0.30487,-0.14588 -6.12072,-0.15851 -5.81585,-0.0126 -5.81585,-0.0126 -6.16775,-0.35916 -0.19355,-0.1906 -0.51636,-0.45282 -0.71735,-0.58273 -0.20099,-0.12991 -0.53347,-0.30099 -0.73883,-0.38018 -0.20536,-0.0792 -0.49469,-0.17984 -0.64297,-0.22365 -0.23855,-0.0705 -0.61521,-0.0815 -3.27139,-0.0957 -2.07395,-0.0111 -3.09603,1.7e-4 -3.30667,0.0365 -0.16768,0.0289 -0.43594,0.11696 -0.59613,0.19565 -0.18019,0.0885 -0.39099,0.24762 -0.55275,0.41721 -0.15262,0.15999 -0.32428,0.4067 -0.41229,0.5925 -0.1508,0.31836 -0.1508,0.31836 -0.16322,7.81053 -0.0124,7.49216 -0.0124,7.49216 0.0858,7.78377 0.054,0.16038 0.18101,0.40962 0.28219,0.55386 0.10118,0.14424 0.28419,0.33784 0.40668,0.43022 0.12249,0.0924 0.29313,0.20372 0.37919,0.2474 0.0861,0.0437 0.29713,0.10923 0.46903,0.14566 0.26392,0.0559 1.8818,0.0658 10.39672,0.0633 8.2207,-0.002 10.13731,-0.0145 10.37175,-0.0655 z"
         id="path8" /></g></g></svg>
