<?xml version="1.0" encoding="UTF-8" standalone="no"?>
<!-- Created with Inkscape (http://www.inkscape.org/) -->

<svg
   width="23.999996mm"
   height="24.000231mm"
   viewBox="0 0 23.999996 24.000231"
   version="1.1"
   id="svg1"
   xml:space="preserve"
   inkscape:version="1.4.3 (0d15f75, 2025-12-25)"
   sodipodi:docname="Page Assets.svg"
   xmlns:inkscape="http://www.inkscape.org/namespaces/inkscape"
   xmlns:sodipodi="http://sodipodi.sourceforge.net/DTD/sodipodi-0.dtd"
   xmlns="http://www.w3.org/2000/svg"
   xmlns:svg="http://www.w3.org/2000/svg"><sodipodi:namedview
     id="namedview1"
     pagecolor="#ffffff"
     bordercolor="#000000"
     borderopacity="0.25"
     inkscape:showpageshadow="2"
     inkscape:pageopacity="0.0"
     inkscape:pagecheckerboard="0"
     inkscape:deskcolor="#d1d1d1"
     inkscape:document-units="mm"
     inkscape:zoom="1.3772587"
     inkscape:cx="416.40688"
     inkscape:cy="595.02256"
     inkscape:window-width="1920"
     inkscape:window-height="991"
     inkscape:window-x="-9"
     inkscape:window-y="-9"
     inkscape:window-maximized="1"
     inkscape:current-layer="layer1"><inkscape:page
       x="0"
       y="0"
       width="23.999996"
       height="24.000231"
       id="page2"
       margin="0"
       bleed="0" /></sodipodi:namedview><defs
     id="defs1" /><g
     inkscape:label="Layer 1"
     inkscape:groupmode="layer"
     id="layer1"
     transform="translate(-123.14933,-148.49183)"><g
       id="g7"><g
         style="fill:none"
         id="g6"
         transform="matrix(1.3647369,0,0,1.3647369,119.05511,143.83245)"><path
           id="Vector"
           d="M 12,8.00012 4,16.0001 v 4 h 4 l 8,-8 m -4,-3.99998 2.8686,-2.86866 0.0018,-0.0017 c 0.3948,-0.39488 0.5926,-0.59267 0.8206,-0.66675 0.2009,-0.06526 0.4172,-0.06526 0.6181,0 0.2278,0.07403 0.4254,0.27159 0.8197,0.66591 l 1.7398,1.7398 c 0.396,0.39602 0.5941,0.59412 0.6683,0.82245 0.0653,0.20084 0.0652,0.41718 0,0.61803 -0.0741,0.22816 -0.2719,0.42596 -0.6674,0.82141 l -9e-4,8.5e-4 L 16,12.0001 m -4,-3.99998 4,3.99998"
           stroke="#000000"
           stroke-width="2"
           stroke-linecap="round"
           stroke-linejoin="round" /></g><rect
         style="fill:#000000;fill-opacity:1;stroke-width:0.218475"
         id="rect7"
         width="14.356036"
         height="9.3591824"
         x="-33.06356"
         y="203.92633"
         transform="rotate(-46.206952)" /><rect
         style="fill:#000000;fill-opacity:1;stroke-width:0.120406"
         id="rect7-5"
         width="7.911932"
         height="5.1580544"
         x="-36.168865"
         y="205.98378"
         transform="rotate(-46.206952)" /></g></g></svg>
