<?xml version="1.0" encoding="UTF-8" standalone="no"?>
<!-- Created with Inkscape (http://www.inkscape.org/) -->

<svg
   width="23.999996mm"
   height="23.999989mm"
   viewBox="0 0 23.999996 23.999989"
   version="1.1"
   id="svg1"
   xml:space="preserve"
   inkscape:version="1.4.3 (0d15f75, 2025-12-25)"
   sodipodi:docname="Page Assets.svg"
   xmlns:inkscape="http://www.inkscape.org/namespaces/inkscape"
   xmlns:sodipodi="http://sodipodi.sourceforge.net/DTD/sodipodi-0.dtd"
   xmlns="http://www.w3.org/2000/svg"
   xmlns:svg="http://www.w3.org/2000/svg"><sodipodi:namedview
     id="namedview1"
     pagecolor="#ffffff"
     bordercolor="#000000"
     borderopacity="0.25"
     inkscape:showpageshadow="2"
     inkscape:pageopacity="0.0"
     inkscape:pagecheckerboard="0"
     inkscape:deskcolor="#d1d1d1"
     inkscape:document-units="mm"
     inkscape:zoom="1.9477379"
     inkscape:cx="363.7553"
     inkscape:cy="584.01081"
     inkscape:window-width="1920"
     inkscape:window-height="991"
     inkscape:window-x="-9"
     inkscape:window-y="-9"
     inkscape:window-maximized="1"
     inkscape:current-layer="layer1"><inkscape:page
       x="0"
       y="0"
       width="23.999996"
       height="23.999989"
       id="page2"
       margin="0"
       bleed="0" /></sodipodi:namedview><defs
     id="defs1"><clipPath
       clipPathUnits="userSpaceOnUse"
       id="clipPath2"><rect
         style="fill:#ee0000;fill-opacity:0.663226;stroke-width:0.0897509"
         id="rect3"
         width="24"
         height="24"
         x="165.72644"
         y="154.04408" /></clipPath></defs><g
     inkscape:label="Layer 1"
     inkscape:groupmode="layer"
     id="layer1"
     transform="translate(-93.000002,-136.31091)"><g
       id="g4"
       transform="translate(-46.33812,-25.120793)"
       inkscape:export-filename="g4.svg"
       inkscape:export-xdpi="96"
       inkscape:export-ydpi="96"><path
         style="fill:#000000;stroke-width:0.496007"
         d="m 103.56938,177.59373 c -0.22684,-0.12306 -0.40428,-0.37003 -0.49141,-0.68373 -0.17217,-0.61997 -0.18355,-19.95212 -0.0125,-20.69103 0.13625,-0.58753 0.45128,-1.05477 0.97465,-1.44565 0.35393,-0.26431 0.52541,-0.2714 7.41266,-0.30665 7.05036,-0.0361 7.05036,-0.0361 7.63493,0.26822 0.41724,0.21718 0.66907,0.47024 0.87984,0.88411 0.29527,0.57979 0.29527,0.57979 0.29527,10.99527 0,10.41547 0,10.41547 -0.3836,10.79908 -0.44154,0.44154 -0.96364,0.4994 -1.45729,0.16152 -0.17847,-0.12218 -1.18078,-1.01812 -2.2274,-1.99105 -1.04658,-0.97293 -2.28896,-2.12794 -2.76082,-2.56665 -2.05771,-1.91327 -1.58371,-1.91421 -3.63128,0.008 -5.51706,5.1771 -5.3455,5.05134 -6.23341,4.56938 z m 4.3055,-3.86261 c 1.94146,-1.80313 3.62877,-3.27953 3.74957,-3.28087 0.12081,-9.5e-4 1.79351,1.45919 3.7171,3.24561 1.92358,1.78644 3.57232,3.26537 3.66384,3.28651 0.46614,0.10762 0.47578,-0.12586 0.43991,-10.64901 -0.0352,-10.31552 -0.0352,-10.31552 -0.39895,-10.67935 -0.36382,-0.36385 -0.36382,-0.36385 -7.2152,-0.40011 -4.86157,-0.0257 -6.95514,0.007 -7.20862,0.11175 -0.19648,0.0814 -0.46347,0.30439 -0.59329,0.49559 -0.22143,0.32607 -0.2383,0.97641 -0.27201,10.4883 -0.0247,6.9526 0.008,10.22232 0.10309,10.40038 0.0764,0.14282 0.21676,0.25968 0.31183,0.25968 0.0952,0 1.76132,-1.47528 3.70278,-3.27842 z m 29.12074,3.94063 c -0.14435,-0.0597 -0.41011,-0.2674 -0.59055,-0.46152 -0.32809,-0.35297 -0.32809,-0.35297 -0.36331,-10.39178 -0.0233,-6.67595 0.01,-10.20932 0.10195,-10.54791 0.18041,-0.66998 0.71508,-1.28856 1.37149,-1.58674 0.49212,-0.22354 1.01424,-0.24111 7.24116,-0.24378 6.71082,-0.003 6.71082,-0.003 7.40518,0.35985 0.51936,0.27132 0.77121,0.50805 0.99925,0.9393 0.30489,0.57654 0.30489,0.57654 0.30489,10.82864 0,11.26186 0.0473,10.60067 -0.78887,11.03305 -0.45395,0.23476 -1.01004,0.24566 -1.3956,0.0274 -0.15487,-0.0876 -1.65087,-1.42909 -3.32446,-2.98095 -1.6736,-1.55185 -3.09101,-2.83921 -3.14982,-2.86079 -0.0588,-0.0215 -1.50853,1.26728 -3.22158,2.86412 -1.71305,1.59683 -3.25843,2.95801 -3.43418,3.02482 -0.38261,0.14547 -0.79804,0.14413 -1.15548,-0.003 z m 4.821,-5.34389 c 2.06411,-1.91667 2.66381,-2.405 2.95344,-2.405 0.29247,0 1.01195,0.60191 3.68636,3.08402 1.82763,1.69622 3.38061,3.08403 3.45106,3.08403 0.17578,0 0.13194,-18.94 -0.045,-19.44765 -0.0718,-0.20591 -0.23854,-0.43219 -0.37055,-0.50285 -0.14739,-0.0788 -2.77226,-0.12845 -6.80087,-0.12845 -6.56086,0 -6.56086,0 -6.83286,0.34578 -0.26964,0.34279 -0.272,0.43042 -0.272,10.11923 0,9.77343 0,9.77343 0.82021,9.01467 0.45114,-0.41732 1.98573,-1.84101 3.41023,-3.16378 z m 28.066,5.30312 c -0.17348,-0.0892 -0.43923,-0.32885 -0.59053,-0.53265 -0.2738,-0.36875 -0.27514,-0.41961 -0.27514,-10.56441 0,-10.08374 0.003,-10.19955 0.27416,-10.71882 0.15079,-0.28871 0.52493,-0.7021 0.83142,-0.91864 0.55723,-0.39371 0.55723,-0.39371 7.45302,-0.42993 6.84437,-0.036 6.90015,-0.0341 7.4841,0.24857 0.39356,0.19052 0.7137,0.48254 0.96712,0.88213 0.37883,0.59735 0.37883,0.59735 0.37883,10.91001 0,11.32863 0.0476,10.66113 -0.78887,11.09362 -0.45396,0.23476 -1.01193,0.24576 -1.39014,0.0274 -0.15185,-0.0876 -1.64631,-1.42909 -3.32103,-2.98095 -1.67472,-1.55185 -3.08705,-2.83668 -3.13852,-2.85519 -0.0516,-0.0185 -1.30311,1.09292 -2.7814,2.46985 -1.47829,1.37693 -2.97363,2.73559 -3.32296,3.01925 -0.67915,0.55147 -1.19162,0.65217 -1.78006,0.34977 z"
         id="path2"
         clip-path="url(#clipPath2)"
         transform="translate(-26.217379,7.3354324)" /><rect
         style="fill:#ee0000;fill-opacity:0;stroke-width:0.0897508"
         id="rect4"
         width="24"
         height="24"
         x="139.33812"
         y="161.4317" /></g></g></svg>
