<?xml version="1.0" encoding="UTF-8" standalone="no"?>
<!-- Created with Inkscape (http://www.inkscape.org/) -->

<svg
   width="23.999989mm"
   height="24.000006mm"
   viewBox="0 0 23.999989 24.000006"
   version="1.1"
   id="svg1"
   xml:space="preserve"
   inkscape:version="1.4.3 (0d15f75, 2025-12-25)"
   sodipodi:docname="Page Assets.svg"
   xmlns:inkscape="http://www.inkscape.org/namespaces/inkscape"
   xmlns:sodipodi="http://sodipodi.sourceforge.net/DTD/sodipodi-0.dtd"
   xmlns="http://www.w3.org/2000/svg"
   xmlns:svg="http://www.w3.org/2000/svg"><sodipodi:namedview
     id="namedview1"
     pagecolor="#ffffff"
     bordercolor="#000000"
     borderopacity="0.25"
     inkscape:showpageshadow="2"
     inkscape:pageopacity="0.0"
     inkscape:pagecheckerboard="0"
     inkscape:deskcolor="#d1d1d1"
     inkscape:document-units="mm"
     inkscape:zoom="0.97386896"
     inkscape:cx="492.36603"
     inkscape:cy="699.78614"
     inkscape:window-width="1920"
     inkscape:window-height="991"
     inkscape:window-x="-9"
     inkscape:window-y="-9"
     inkscape:window-maximized="1"
     inkscape:current-layer="layer1"><inkscape:page
       x="0"
       y="0"
       width="23.999989"
       height="24.000006"
       id="page2"
       margin="0"
       bleed="0" /></sodipodi:namedview><defs
     id="defs1" /><g
     inkscape:label="Layer 1"
     inkscape:groupmode="layer"
     id="layer1"
     transform="translate(-149.97352,-101.02209)"><g
       id="g12"><rect
         style="fill:#ee0000;fill-opacity:0;stroke-width:0.0897508"
         id="rect2"
         width="24"
         height="24"
         x="149.97353"
         y="101.02209" /><g
         id="g9"
         transform="matrix(0.20260933,0,0,-0.20260933,154.82468,121.6447)"><path
           style="fill:#000000"
           d="m -2.6747532,101.43473 c -0.87135,-0.21157 -2.47869,-0.82324 -3.57188,-1.35928 -1.50399,-0.737478 -2.53709,-1.524098 -4.2459798,-3.232988 -1.70969,-1.70969 -2.49444,-2.7405 -3.22998,-4.24275 -0.53439,-1.09141 -1.15346,-2.75829 -1.37573,-3.70417 -0.35405,-1.50666 -0.40413,-7.24481 -0.40413,-46.30208 0,-39.0572696 0.0501,-44.7954196 0.40413,-46.3020796 0.22227,-0.94589 0.84134,-2.61276 1.37573,-3.70417 0.73554,-1.50225 1.52029,-2.53307 3.22998,-4.2427504 1.7096898,-1.70969 2.7404998,-2.49444 4.2427498,-3.22999 1.09141,-0.534377 2.75828,-1.153456 3.70417,-1.375726 1.50226,-0.353011 6.79224,-0.404622 41.8231802,-0.408038 35.99032,-0.0035 40.23017,0.03929 41.33961,0.417313 0.67992,0.231673 1.83881,0.963002 2.57531,1.625181 0.73649,0.66217 1.65992,1.81207 2.05205,2.55533 0.71297,1.35139 0.71297,1.35139 0.79283,8.4951404 0.0439,3.92906001 0.0439,8.06726 0,9.196 -0.0799,2.05224 -0.0799,2.05224 -1.36715,1.13589 -0.708,-0.50399 -2.01769,-1.15015 -2.91041,-1.43591 -0.89272,-0.28577 -2.17931,-0.59445 -2.85907,-0.68597 -1.23594,-0.16639 -1.23594,-0.16639 -1.32292,-4.98194999 -0.0772,-4.27229001 -0.14773,-4.91898001 -0.62551,-5.73224001 -0.29619,-0.50417 -0.95103,-1.15902 -1.4552,-1.45521 -0.91037,-0.53482 -1.1756,-0.53853 -38.48752,-0.53853 -37.57083024,0 -37.57083024,0 -39.0634802,0.73302 -0.82095,0.40316 -1.99242,1.27522 -2.60326,1.9379 -0.61084,0.66268 -1.35861,1.76157 -1.66171,2.44198 -0.40033,0.89867 -0.55198,1.78817 -0.55433,3.25147001 -0.003,1.65655999 0.12388,2.27415999 0.71238,3.47701999 0.39359,0.80446 1.25781,1.96244 1.92049,2.57328 0.66268,0.61083 1.76157,1.36789 2.44198,1.68235 1.23709996,0.57173 1.23709996,0.57173 41.5860602,0.70402 40.34896,0.1323 40.34896,0.1323 41.75219,0.90966 0.77178,0.4275496 1.80842,1.2258596 2.30364,1.7740196 0.49523,0.54815 1.17346,1.50803 1.50719,2.13305 0.60677,1.1364 0.60677,1.1364 0.60677,41.74994 0,40.61354 0,40.61354 -0.77737,42.01677 -0.42755,0.77178 -1.22586,1.80842 -1.77401,2.30364 -0.54816,0.495228 -1.50803,1.173458 -2.13305,1.507188 -1.1364,0.60677 -1.1364,0.60677 -41.74994,0.65256 -34.7365202,0.0392 -40.8428002,-0.01 -42.1978102,-0.33889 z m 10.57074,-8.798228 c 0.43141,-0.24882 1.02672,-0.8649 1.32291,-1.36907 0.53386,-0.90873 0.53853,-1.20243 0.53853,-33.85731 0,-32.65487 -0.005,-32.94857 -0.53853,-33.8573 -0.29619,-0.50417 -0.9417,-1.15215 -1.43448,-1.43994 -0.54469,-0.31812 -1.37899,-0.52327 -2.12803,-0.52327 -0.74904,0 -1.58334,0.20515 -2.12803,0.52327 -0.49277,0.28779 -1.13829,0.93577 -1.43448,1.43994 -0.53265,0.90668 -0.5393,1.26993 -0.60879,33.28458 -0.0477,21.98627 0.0188,32.69874 0.2075,33.39942 0.15277,0.56734 0.54157,1.33596 0.86401,1.70805 0.32244,0.37208 1.0625,0.84889 1.64458,1.05957 0.60354,0.21845 1.45629,0.3189 1.98438,0.23376 0.50932,-0.0821 1.27901,-0.35288 1.71043,-0.6017 z"
           id="path9" /><rect
           style="fill:#000000;fill-opacity:1;stroke-width:0.361992"
           id="rect9"
           width="8.4809141"
           height="49.660091"
           x="77.515846"
           y="-5.186934" /><rect
           style="fill:#000000;fill-opacity:1;stroke-width:0.536855"
           id="rect9-3"
           width="12.09994"
           height="76.556679"
           x="-0.81398612"
           y="18.579004" /></g><g
         id="g11"
         transform="matrix(0.20260933,0,0,-0.20260933,154.82468,121.6447)"><path
           style="fill:#000000"
           d="m -2.6747532,101.43473 c -0.87135,-0.21157 -2.47869,-0.82324 -3.57188,-1.35928 -1.50399,-0.737478 -2.53709,-1.524098 -4.2459798,-3.232988 -1.70969,-1.70969 -2.49444,-2.7405 -3.22998,-4.24275 -0.53439,-1.09141 -1.15346,-2.75829 -1.37573,-3.70417 -0.35405,-1.50666 -0.40413,-7.24481 -0.40413,-46.30208 0,-39.0572696 0.0501,-44.7954196 0.40413,-46.3020796 0.22227,-0.94589 0.84134,-2.61276 1.37573,-3.70417 0.73554,-1.50225 1.52029,-2.53307 3.22998,-4.2427504 1.7096898,-1.70969 2.7404998,-2.49444 4.2427498,-3.22999 1.09141,-0.534377 2.75828,-1.153456 3.70417,-1.375726 1.50226,-0.353011 6.79224,-0.404622 41.8231802,-0.408038 35.99032,-0.0035 40.23017,0.03929 41.33961,0.417313 0.67992,0.231673 1.83881,0.963002 2.57531,1.625181 0.73649,0.66217 1.65992,1.81207 2.05205,2.55533 0.71297,1.35139 0.71297,1.35139 0.79283,8.4951404 0.0439,3.92906001 0.0439,8.06726 0,9.196 -0.0799,2.05224 -0.0799,2.05224 -1.36715,1.13589 -0.708,-0.50399 -2.01769,-1.15015 -2.91041,-1.43591 -0.89272,-0.28577 -2.17931,-0.59445 -2.85907,-0.68597 -1.23594,-0.16639 -1.23594,-0.16639 -1.32292,-4.98194999 -0.0772,-4.27229001 -0.14773,-4.91898001 -0.62551,-5.73224001 -0.29619,-0.50417 -0.95103,-1.15902 -1.4552,-1.45521 -0.91037,-0.53482 -1.1756,-0.53853 -38.48752,-0.53853 -37.57083024,0 -37.57083024,0 -39.0634802,0.73302 -0.82095,0.40316 -1.99242,1.27522 -2.60326,1.9379 -0.61084,0.66268 -1.35861,1.76157 -1.66171,2.44198 -0.40033,0.89867 -0.55198,1.78817 -0.55433,3.25147001 -0.003,1.65655999 0.12388,2.27415999 0.71238,3.47701999 0.39359,0.80446 1.25781,1.96244 1.92049,2.57328 0.66268,0.61083 1.76157,1.36789 2.44198,1.68235 1.23709996,0.57173 1.23709996,0.57173 41.5860602,0.70402 40.34896,0.1323 40.34896,0.1323 41.75219,0.90966 0.77178,0.4275496 1.80842,1.2258596 2.30364,1.7740196 0.49523,0.54815 1.17346,1.50803 1.50719,2.13305 0.60677,1.1364 0.60677,1.1364 0.60677,41.74994 0,40.61354 0,40.61354 -0.77737,42.01677 -0.42755,0.77178 -1.22586,1.80842 -1.77401,2.30364 -0.54816,0.495228 -1.50803,1.173458 -2.13305,1.507188 -1.1364,0.60677 -1.1364,0.60677 -41.74994,0.65256 -34.7365202,0.0392 -40.8428002,-0.01 -42.1978102,-0.33889 z m 10.57074,-8.798228 c 0.43141,-0.24882 1.02672,-0.8649 1.32291,-1.36907 0.53386,-0.90873 0.53853,-1.20243 0.53853,-33.85731 0,-32.65487 -0.005,-32.94857 -0.53853,-33.8573 -0.29619,-0.50417 -0.9417,-1.15215 -1.43448,-1.43994 -0.54469,-0.31812 -1.37899,-0.52327 -2.12803,-0.52327 -0.74904,0 -1.58334,0.20515 -2.12803,0.52327 -0.49277,0.28779 -1.13829,0.93577 -1.43448,1.43994 -0.53265,0.90668 -0.5393,1.26993 -0.60879,33.28458 -0.0477,21.98627 0.0188,32.69874 0.2075,33.39942 0.15277,0.56734 0.54157,1.33596 0.86401,1.70805 0.32244,0.37208 1.0625,0.84889 1.64458,1.05957 0.60354,0.21845 1.45629,0.3189 1.98438,0.23376 0.50932,-0.0821 1.27901,-0.35288 1.71043,-0.6017 z"
           id="path10" /><rect
           style="fill:#000000;fill-opacity:1;stroke-width:0.361992"
           id="rect10"
           width="8.4809141"
           height="49.660091"
           x="77.515846"
           y="-5.186934" /><rect
           style="fill:#000000;fill-opacity:1;stroke-width:0.536855"
           id="rect11"
           width="12.09994"
           height="76.556679"
           x="-0.81398612"
           y="18.579004" /></g></g></g></svg>
